# Blender v3.1.2 OBJ File: 'Test Slopes.blend'
# www.blender.org
g Test_Slopes
v -2.000000 -0.000000 -1.000000
v 0.000000 0.250000 -1.000000
v 0.000000 -0.000000 -1.000000
v -0.000000 0.000000 1.000000
v -0.000000 1.250000 1.000000
v -2.000000 -0.000000 1.000000
v -0.000000 1.000000 0.204444
v -0.000000 1.000000 0.613333
v -0.000000 0.000000 0.613333
v 0.000000 0.000000 0.204444
v -0.000000 0.750000 0.204444
v 0.000000 0.250000 -0.613333
v -2.000000 -0.000000 -0.613333
v -0.000000 1.250000 0.613333
v -2.000000 -0.000000 0.613333
v -2.000000 -0.000000 0.204444
v -0.000000 0.750000 -0.204444
v -2.000000 -0.000000 -0.204444
v -0.000000 0.500000 -0.204444
v 0.000000 0.500000 -0.613333
v 0.000000 -0.000000 -0.613333
v 0.000000 -0.000000 -0.204444
v 2.000000 0.000000 -1.000000
v 2.000000 0.000000 1.000000
v 2.000000 0.000000 -0.613333
v 2.000000 0.000000 0.613333
v 2.000000 0.000000 0.204444
v 2.000000 0.000000 -0.204444
vt 0.375000 0.000000
vt 0.625000 0.250000
vt 0.375000 0.250000
vt 0.375000 0.500000
vt 0.625000 0.500000
vt 0.375000 0.750000
vt 0.847222 0.500000
vt 0.875000 0.500000
vt 0.375000 1.000000
vt 0.375000 0.972222
vt 0.652778 0.500000
vt 0.375000 0.777778
vt 0.680556 0.500000
vt 0.708333 0.500000
vt 0.375000 0.833333
vt 0.375000 0.805556
vt 0.736111 0.500000
vt 0.763889 0.500000
vt 0.375000 0.888889
vt 0.375000 0.861111
vt 0.791667 0.500000
vt 0.819444 0.500000
vt 0.375000 0.944444
vt 0.375000 0.916667
vt 0.125000 0.500000
vt 0.152778 0.500000
vt 0.152778 0.750000
vt 0.125000 0.750000
vt 0.263889 0.500000
vt 0.263889 0.750000
vt 0.208333 0.750000
vt 0.208333 0.500000
vt 0.319444 0.500000
vt 0.319444 0.750000
vt 0.375000 0.000000
vt 0.375000 0.750000
vt 0.375000 0.972222
vt 0.375000 1.000000
vt 0.375000 0.777778
vt 0.375000 0.805556
vt 0.375000 0.833333
vt 0.375000 0.861111
vt 0.375000 0.888889
vt 0.375000 0.916667
vt 0.375000 0.944444
vt 0.125000 0.750000
vt 0.152778 0.750000
vt 0.208333 0.750000
vt 0.263889 0.750000
vt 0.319444 0.750000
vn 0.0000 -0.0000 -1.0000
vn -0.0000 0.0000 1.0000
vn -0.1240 0.9923 0.0000
vn -0.5300 0.8480 0.0000
vn -0.4472 0.8944 0.0000
vn -0.3511 0.9363 -0.0000
vn -0.2425 0.9701 -0.0000
vn 0.0000 -1.0000 0.0000
vn 0.1240 0.9923 0.0000
vn 0.5300 0.8480 0.0000
vn 0.4472 0.8944 -0.0000
vn 0.3511 0.9363 -0.0000
vn 0.2425 0.9701 0.0000
s off
f 1/1/1 2/2/1 3/3/1
f 4/4/2 5/5/2 6/6/2
f 12/7/3 2/8/3 1/9/3 13/10/3
f 5/5/4 14/11/4 15/12/4 6/6/4
f 14/11/1 8/13/1 15/12/1
f 8/13/5 7/14/5 16/15/5 15/16/5
f 7/14/1 11/17/1 16/15/1
f 11/17/6 17/18/6 18/19/6 16/20/6
f 17/18/1 19/21/1 18/19/1
f 19/21/7 20/22/7 13/23/7 18/24/7
f 20/22/1 12/7/1 13/23/1
f 3/25/8 21/26/8 13/27/8 1/28/8
f 10/29/8 16/30/8 18/31/8 22/32/8
f 9/33/8 4/4/8 6/6/8 15/34/8
f 22/32/8 18/31/8 13/27/8 21/26/8
f 9/33/8 15/34/8 16/30/8 10/29/8
f 23/35/1 3/3/1 2/2/1
f 4/4/2 24/36/2 5/5/2
f 12/7/9 25/37/9 23/38/9 2/8/9
f 5/5/10 24/36/10 26/39/10 14/11/10
f 14/11/1 26/39/1 8/13/1
f 8/13/11 26/40/11 27/41/11 7/14/11
f 7/14/1 27/41/1 11/17/1
f 11/17/12 27/42/12 28/43/12 17/18/12
f 17/18/1 28/43/1 19/21/1
f 19/21/13 28/44/13 25/45/13 20/22/13
f 20/22/1 25/45/1 12/7/1
f 3/25/8 23/46/8 25/47/8 21/26/8
f 10/29/8 22/32/8 28/48/8 27/49/8
f 9/33/8 26/50/8 24/36/8 4/4/8
f 22/32/8 21/26/8 25/47/8 28/48/8
f 9/33/8 10/29/8 27/49/8 26/50/8
