# Blender v3.1.2 OBJ File: 'Test Slopes.blend'
# www.blender.org
g Test_Slopes
v -2.000000 -0.000000 -1.000000
v 0.000000 0.250000 -1.000000
v 0.000000 -0.000000 -1.000000
v -0.000000 0.000000 1.000000
v -0.000000 1.250000 1.000000
v -2.000000 -0.000000 1.000000
v -0.000000 1.000000 0.204444
v -0.000000 1.000000 0.613333
v -0.000000 0.000000 0.613333
v 0.000000 0.000000 0.204444
v -0.000000 0.750000 0.204444
v 0.000000 0.250000 -0.613333
v -2.000000 -0.000000 -0.613333
v -0.000000 1.250000 0.613333
v -2.000000 -0.000000 0.613333
v -2.000000 -0.000000 0.204444
v -0.000000 0.750000 -0.204444
v -2.000000 -0.000000 -0.204444
v -0.000000 0.500000 -0.204444
v 0.000000 0.500000 -0.613333
v 0.000000 -0.000000 -0.613333
v 0.000000 -0.000000 -0.204444
v 2.000000 0.000000 -1.000000
v 2.000000 0.000000 1.000000
v 2.000000 0.000000 -0.613333
v 2.000000 0.000000 0.613333
v 2.000000 0.000000 0.204444
v 2.000000 0.000000 -0.204444
vn 0.0000 -0.0000 -1.0000
vn -0.0000 0.0000 1.0000
vn -0.1240 0.9923 -0.0000
vn -0.5300 0.8480 0.0000
vn -0.4472 0.8944 0.0000
vn -0.3511 0.9363 -0.0000
vn -0.2425 0.9701 0.0000
vn 0.0000 -1.0000 0.0000
vn 0.1240 0.9923 0.0000
vn 0.5300 0.8480 0.0000
vn 0.4472 0.8944 -0.0000
vn 0.3511 0.9363 -0.0000
vn 0.2425 0.9701 0.0000
s off
f 1//1 2//1 3//1
f 4//2 5//2 6//2
f 2//3 13//3 12//3
f 14//4 6//4 5//4
f 14//1 8//1 15//1
f 7//5 15//5 8//5
f 7//1 11//1 16//1
f 17//6 16//6 11//6
f 17//1 19//1 18//1
f 20//7 18//7 19//7
f 20//1 12//1 13//1
f 3//8 13//8 1//8
f 16//8 22//8 10//8
f 4//8 15//8 9//8
f 18//8 21//8 22//8
f 15//8 10//8 9//8
f 23//1 3//1 2//1
f 4//2 24//2 5//2
f 25//9 2//9 12//9
f 24//10 14//10 5//10
f 14//1 26//1 8//1
f 8//11 27//11 7//11
f 7//1 27//1 11//1
f 27//12 17//12 11//12
f 17//1 28//1 19//1
f 19//13 25//13 20//13
f 20//1 25//1 12//1
f 23//8 21//8 3//8
f 10//8 28//8 27//8
f 26//8 4//8 9//8
f 21//8 28//8 22//8
f 10//8 26//8 9//8
f 2//3 1//3 13//3
f 14//4 15//4 6//4
f 7//5 16//5 15//5
f 17//6 18//6 16//6
f 20//7 13//7 18//7
f 3//8 21//8 13//8
f 16//8 18//8 22//8
f 4//8 6//8 15//8
f 18//8 13//8 21//8
f 15//8 16//8 10//8
f 25//9 23//9 2//9
f 24//10 26//10 14//10
f 8//11 26//11 27//11
f 27//12 28//12 17//12
f 19//13 28//13 25//13
f 23//8 25//8 21//8
f 10//8 22//8 28//8
f 26//8 24//8 4//8
f 21//8 25//8 28//8
f 10//8 27//8 26//8
