# Blender v3.1.2 OBJ File: ''
# www.blender.org
g Test_Slopes
v -1.000000 0.000000 2.000000
v -1.000000 0.250000 -0.000000
v -1.000000 0.000000 0.000000
v 1.000000 0.000000 0.000000
v 1.000000 1.250000 -0.000000
v 1.000000 0.000000 2.000000
v 0.204444 1.000000 -0.000000
v 0.613333 1.000000 -0.000000
v 0.613333 0.000000 0.000000
v 0.204444 0.000000 0.000000
v 0.204444 0.750000 -0.000000
v -0.613333 0.250000 -0.000000
v -0.613333 0.000000 2.000000
v 0.613333 1.250000 -0.000000
v 0.613333 0.000000 2.000000
v 0.204444 0.000000 2.000000
v -0.204444 0.750000 -0.000000
v -0.204444 0.000000 2.000000
v -0.204444 0.500000 -0.000000
v -0.613333 0.500000 -0.000000
v -0.613333 0.000000 0.000000
v -0.204444 0.000000 0.000000
v -1.000000 -0.000000 -2.000000
v 1.000000 -0.000000 -2.000000
v -0.613333 -0.000000 -2.000000
v 0.613333 -0.000000 -2.000000
v 0.204444 -0.000000 -2.000000
v -0.204444 -0.000000 -2.000000
vt 0.375000 0.000000
vt 0.625000 0.250000
vt 0.375000 0.250000
vt 0.375000 0.500000
vt 0.625000 0.500000
vt 0.375000 0.750000
vt 0.625000 0.416667
vt 0.625000 0.444444
vt 0.375000 0.444444
vt 0.375000 0.388889
vt 0.625000 0.388889
vt 0.847222 0.500000
vt 0.875000 0.500000
vt 0.375000 1.000000
vt 0.375000 0.972222
vt 0.652778 0.500000
vt 0.375000 0.777778
vt 0.680556 0.500000
vt 0.708333 0.500000
vt 0.375000 0.833333
vt 0.375000 0.805556
vt 0.736111 0.500000
vt 0.763889 0.500000
vt 0.375000 0.888889
vt 0.375000 0.861111
vt 0.791667 0.500000
vt 0.819444 0.500000
vt 0.375000 0.944444
vt 0.375000 0.916667
vt 0.125000 0.500000
vt 0.152778 0.500000
vt 0.152778 0.750000
vt 0.125000 0.750000
vt 0.263889 0.500000
vt 0.263889 0.750000
vt 0.208333 0.750000
vt 0.208333 0.500000
vt 0.625000 0.361111
vt 0.375000 0.333333
vt 0.625000 0.333333
vt 0.319444 0.500000
vt 0.319444 0.750000
vt 0.625000 0.277778
vt 0.375000 0.277778
vt 0.625000 0.472222
vt 0.625000 0.305556
vt 0.375000 0.000000
vt 0.375000 0.750000
vt 0.375000 0.972222
vt 0.375000 1.000000
vt 0.375000 0.777778
vt 0.375000 0.805556
vt 0.375000 0.833333
vt 0.375000 0.861111
vt 0.375000 0.888889
vt 0.375000 0.916667
vt 0.375000 0.944444
vt 0.125000 0.750000
vt 0.152778 0.750000
vt 0.208333 0.750000
vt 0.263889 0.750000
vt 0.319444 0.750000
vn -1.0000 0.0000 0.0000
vn 1.0000 0.0000 0.0000
vn 0.0000 -0.0000 -1.0000
vn 0.0000 0.9923 0.1240
vn 0.0000 0.8480 0.5300
vn 0.0000 0.8944 0.4472
vn 0.0000 0.9363 0.3511
vn 0.0000 0.9701 0.2425
vn 0.0000 -1.0000 0.0000
vn 0.0000 0.9923 -0.1240
vn 0.0000 0.8480 -0.5300
vn 0.0000 0.8944 -0.4472
vn 0.0000 0.9363 -0.3511
vn 0.0000 0.9701 -0.2425
s off
f 1/1/1 2/2/1 3/3/1
f 4/4/2 5/5/2 6/6/2
f 7/7/3 8/8/3 9/9/3 10/10/3 11/11/3
f 12/12/4 2/13/4 1/14/4 13/15/4
f 5/5/5 14/16/5 15/17/5 6/6/5
f 14/16/1 8/18/1 15/17/1
f 8/18/6 7/19/6 16/20/6 15/21/6
f 7/19/1 11/22/1 16/20/1
f 11/22/7 17/23/7 18/24/7 16/25/7
f 17/23/1 19/26/1 18/24/1
f 19/26/8 20/27/8 13/28/8 18/29/8
f 20/27/1 12/12/1 13/28/1
f 3/30/9 21/31/9 13/32/9 1/33/9
f 10/34/9 16/35/9 18/36/9 22/37/9
f 17/38/3 11/11/3 10/10/3 22/39/3 19/40/3
f 9/41/9 4/4/9 6/6/9 15/42/9
f 3/3/3 2/2/3 12/43/3 21/44/3
f 22/37/9 18/36/9 13/32/9 21/31/9
f 9/41/9 15/42/9 16/35/9 10/34/9
f 9/9/3 8/8/3 14/45/3 5/5/3 4/4/3
f 20/46/3 19/40/3 22/39/3 21/44/3 12/43/3
f 23/47/1 3/3/1 2/2/1
f 4/4/2 24/48/2 5/5/2
f 12/12/10 25/49/10 23/50/10 2/13/10
f 5/5/11 24/48/11 26/51/11 14/16/11
f 14/16/1 26/51/1 8/18/1
f 8/18/12 26/52/12 27/53/12 7/19/12
f 7/19/1 27/53/1 11/22/1
f 11/22/13 27/54/13 28/55/13 17/23/13
f 17/23/1 28/55/1 19/26/1
f 19/26/14 28/56/14 25/57/14 20/27/14
f 20/27/1 25/57/1 12/12/1
f 3/30/9 23/58/9 25/59/9 21/31/9
f 10/34/9 22/37/9 28/60/9 27/61/9
f 9/41/9 26/62/9 24/48/9 4/4/9
f 22/37/9 21/31/9 25/59/9 28/60/9
f 9/41/9 10/34/9 27/61/9 26/62/9
